<?xml version="1.0" encoding="utf-8"?>
<!-- Generator: Adobe Illustrator 16.0.0, SVG Export Plug-In . SVG Version: 6.00 Build 0)  -->
<!DOCTYPE svg PUBLIC "-//W3C//DTD SVG 1.1//EN" "http://www.w3.org/Graphics/SVG/1.1/DTD/svg11.dtd">
<svg version="1.1" id="Layer_1" xmlns="http://www.w3.org/2000/svg" xmlns:xlink="http://www.w3.org/1999/xlink" x="0px" y="0px"
	 width="36.703px" height="34.491px" viewBox="0 0 36.703 34.491" enable-background="new 0 0 36.703 34.491" xml:space="preserve">
<g>
	<path fill="#FF7260" d="M10.968,0.251c5.67-1.329,7.62,8.971,2.78,11.101C8.898,10.791,7.308,3.092,10.968,0.251z"/>
	<path fill="#FF7260" d="M23.638,11.812c-4.64-2.14-4.2-9.561,0.12-11.68c3.32-0.94,4.49,3.38,3.96,5.83
		C27.518,8.552,25.618,10.382,23.638,11.812z"/>
	<path fill="#FF7260" d="M0.888,10.172c3.71-2.58,8.01,3.52,6.05,7.04C2.988,20.161-2.072,13.512,0.888,10.172z"/>
	<path fill="#FF7260" d="M32.008,10.302c1.52-1.59,4.76-0.86,4.609,1.569c0.69,3.431-2.959,7.491-6.409,5.601
		C28.329,15.172,29.909,11.842,32.008,10.302z"/>
	<path fill="#129793" d="M6.648,29.991c-0.64-6.859,4.73-14.59,12.101-14.31c7.06,0.14,12.149,7.521,11.439,14.2
		c-0.05,2.25-2.08,4.49-4.449,4c-2.591-0.58-4.671-2.391-7.131-3.33c-2.85,0.92-5.319,2.71-8.05,3.939
		C8.758,33.521,6.728,32.302,6.648,29.991z"/>
</g>
</svg>
